<svg width="77" height="38" viewBox="0 0 77 38" fill="none" xmlns="http://www.w3.org/2000/svg">
<g filter="url(#filter0_i_103_1244)">
<path fill-rule="evenodd" clip-rule="evenodd" d="M74.5918 18.6874C74.5918 9.47121 67.4189 2 58.5707 2H18.0214C9.17323 2 2.00035 9.47121 2.00035 18.6874C2.00035 27.9036 9.17323 35.3748 18.0214 35.3748H58.5707C67.4189 35.3748 74.5918 27.9036 74.5918 18.6874Z" fill="url(#paint0_linear_103_1244)" fill-opacity="0.5"/>
</g>
<path d="M58.5707 1.33389C67.8121 1.33389 75.2579 9.12917 75.2579 18.6874C75.2579 28.2457 67.8121 36.0409 58.5707 36.0409H18.0214C8.78003 36.0409 1.33424 28.2457 1.33424 18.6874C1.33424 9.12917 8.78003 1.33389 18.0214 1.33389H58.5707Z" stroke="white" stroke-opacity="0.5" stroke-width="1.33223"/>
<ellipse rx="11.209" ry="11.6812" transform="matrix(-1 0 0 1 58.0459 18.7798)" fill="url(#paint1_linear_103_1244)"/>
<ellipse rx="11.209" ry="11.6812" transform="matrix(-1 0 0 1 58.0459 18.7798)" fill="url(#paint2_linear_103_1244)"/>
<ellipse rx="11.209" ry="11.6812" transform="matrix(-1 0 0 1 58.0459 18.7798)" fill="url(#paint3_radial_103_1244)" fill-opacity="0.6"/>
<path d="M47.503 18.7798C47.503 24.8895 52.2489 29.7949 58.0459 29.7949C63.8429 29.7949 68.5888 24.8895 68.5888 18.7798C68.5888 12.6702 63.8429 7.76475 58.0459 7.76475C52.2489 7.76475 47.503 12.6702 47.503 18.7798Z" stroke="#D0D9E7" stroke-opacity="0.6" stroke-width="1.33223"/>
<path fill-rule="evenodd" clip-rule="evenodd" d="M74.5918 18.6874C74.5918 9.47121 67.4189 2 58.5707 2H18.0214C9.17323 2 2.00035 9.47121 2.00035 18.6874C2.00035 27.9036 9.17323 35.3748 18.0214 35.3748H58.5707C67.4189 35.3748 74.5918 27.9036 74.5918 18.6874Z" stroke="white" stroke-opacity="0.5" stroke-width="3.99668"/>
<defs>
<filter id="filter0_i_103_1244" x="0.667969" y="0.667725" width="77.9203" height="38.7038" filterUnits="userSpaceOnUse" color-interpolation-filters="sRGB">
<feFlood flood-opacity="0" result="BackgroundImageFix"/>
<feBlend mode="normal" in="SourceGraphic" in2="BackgroundImageFix" result="shape"/>
<feColorMatrix in="SourceAlpha" type="matrix" values="0 0 0 0 0 0 0 0 0 0 0 0 0 0 0 0 0 0 127 0" result="hardAlpha"/>
<feOffset dx="2.66445" dy="2.66445"/>
<feGaussianBlur stdDeviation="3.99668"/>
<feComposite in2="hardAlpha" operator="arithmetic" k2="-1" k3="1"/>
<feColorMatrix type="matrix" values="0 0 0 0 0 0 0 0 0 0 0 0 0 0 0 0 0 0 0.25 0"/>
<feBlend mode="normal" in2="shape" result="effect1_innerShadow_103_1244"/>
</filter>
<linearGradient id="paint0_linear_103_1244" x1="74.5918" y1="35.3748" x2="-48.4793" y2="35.3748" gradientUnits="userSpaceOnUse">
<stop stop-color="#D9E3FB"/>
<stop offset="1" stop-color="#C2C7CB"/>
</linearGradient>
<linearGradient id="paint1_linear_103_1244" x1="11.209" y1="-5.38329e-08" x2="11.209" y2="24.6645" gradientUnits="userSpaceOnUse">
<stop stop-color="#D0E8FF" stop-opacity="0.2"/>
<stop offset="0.489583" stop-color="#F9F9D5" stop-opacity="0.1979"/>
<stop offset="1" stop-color="#FFD7FD" stop-opacity="0"/>
</linearGradient>
<linearGradient id="paint2_linear_103_1244" x1="0.845868" y1="-1.708e-07" x2="22.2611" y2="24.9708" gradientUnits="userSpaceOnUse">
<stop stop-color="#D8EBFF" stop-opacity="0.2"/>
<stop offset="0.41564" stop-color="#FFEAFD" stop-opacity="0.199136"/>
<stop offset="1" stop-color="#FEFFDA" stop-opacity="0.1979"/>
</linearGradient>
<radialGradient id="paint3_radial_103_1244" cx="0" cy="0" r="1" gradientUnits="userSpaceOnUse" gradientTransform="translate(11.209 11.6812) rotate(90) scale(11.6812 11.209)">
<stop offset="0.458333" stop-color="white" stop-opacity="0.8"/>
<stop offset="1" stop-color="#A3B1C6" stop-opacity="0.6"/>
</radialGradient>
</defs>
</svg>
