<svg width="1013" height="135" viewBox="0 0 1013 135" fill="none" xmlns="http://www.w3.org/2000/svg">
<path d="M28.2289 38.8276H4.39777L2.91203 40.3133L2.97146 120.602L4.51662 122.088H28.2289V122.029L56.4578 93.7996L56.3984 64.085H56.4578L28.2289 38.8276ZM59.4293 95.2854L29.7146 125H0V35.8561H29.7146L59.4293 62.5993V95.2854ZM74.2866 38.8276V35.8561H133.716V38.8276H106.973L105.487 40.3133V120.543L106.973 122.029H133.716V125H74.2866V122.029H101.03L102.515 120.543V40.3133L101.03 38.8276H74.2866ZM208.002 125H148.573V35.8561H208.002V65.5707H205.031V40.3133L203.545 38.8276H152.971L151.485 40.3133V120.543L153.03 122.029H205.031V98.2568L203.545 96.7711H176.802V93.7996H208.002V125ZM222.86 38.8276V35.8561H282.289V38.8276H255.546L254.06 40.3133V120.543L255.546 122.029H282.289V125H222.86V122.029H249.603L251.089 120.543V40.3133L249.603 38.8276H222.86ZM297.146 38.8276V35.8561H356.576V38.8276H329.832L328.347 40.3133V125H325.375V40.3133L323.89 38.8276H297.146ZM395.086 92.3139V64.085L368.343 38.8276L341.599 64.085V92.3139L343.085 93.7996H393.6L395.086 92.3139ZM343.085 96.7711L341.599 98.2568V125H338.628V62.5993L366.857 35.8561H369.828L398.057 62.5993V125H395.086V98.2568L393.6 96.7711H343.085ZM472.344 122.029V125H412.915V35.8561H415.827V120.543L417.372 122.029H472.344ZM620.917 125H561.488V35.8561H620.917V65.5707H617.946V40.3133L616.46 38.8276H565.886L564.4 40.3133V120.543L565.945 122.029H617.946V98.2568L616.46 96.7711H589.717V93.7996H620.917V125ZM692.232 92.3139V64.085L665.489 38.8276L638.746 64.085V92.3139L640.232 93.7996H690.746L692.232 92.3139ZM640.232 96.7711L638.746 98.2568V125H635.774V62.5993L664.003 35.8561H666.975L695.204 62.5993V125H692.232V98.2568L690.746 96.7711H640.232ZM714.518 38.8276L713.032 40.3133V77.4566L714.578 78.9423H765.033L766.519 77.3972V40.3133L765.092 38.8276H714.518ZM710.061 35.8561H769.49V81.9138H715.528L769.49 122.029V125H768.005L713.032 84.1127V125H710.061V35.8561ZM812.576 38.8276H788.745L787.26 40.3133L787.319 120.602L788.864 122.088H812.576V122.029L840.805 93.7996L840.746 64.085H840.805L812.576 38.8276ZM843.777 95.2854L814.062 125H784.348V35.8561H814.062L843.777 62.5993V95.2854ZM858.634 125V35.8561H918.063V38.8276H863.091L861.606 40.3133V77.4566L863.151 78.9423H904.692V81.9138H863.091L861.606 83.3995V120.543L863.091 122.029H918.063V125H858.634ZM935.892 40.3133V125H932.921V35.8561H937.378L989.379 120.543V35.8561H992.35V125H987.893L935.892 40.3133Z" fill="white"/>
<path d="M28.2289 38.8276L29.5625 37.3371L28.993 36.8276H28.2289V38.8276ZM4.39777 38.8276V36.8276H3.56934L2.98355 37.4133L4.39777 38.8276ZM2.91203 40.3133L1.49782 38.8991L0.911421 39.4855L0.912035 40.3148L2.91203 40.3133ZM2.97146 120.602L0.971464 120.604L0.972094 121.454L1.58525 122.044L2.97146 120.602ZM4.51662 122.088L3.13041 123.53L3.71107 124.088H4.51662V122.088ZM28.2289 122.088V124.088H30.2289V122.088H28.2289ZM28.2289 122.029L26.8147 120.614L26.2289 121.2V122.029H28.2289ZM56.4578 93.7996L57.872 95.2138L58.4595 94.6264L58.4578 93.7956L56.4578 93.7996ZM56.3984 64.085V62.085H54.3944L54.3984 64.089L56.3984 64.085ZM56.4578 64.085V66.085H61.6925L57.7914 62.5945L56.4578 64.085ZM59.4293 95.2854L60.8435 96.6996L61.4293 96.1138V95.2854H59.4293ZM29.7146 125V127H30.5431L31.1289 126.414L29.7146 125ZM0 125H-2V127H0V125ZM0 35.8561V33.8561H-2V35.8561H0ZM29.7146 35.8561L31.0526 34.3695L30.4821 33.8561H29.7146V35.8561ZM59.4293 62.5993H61.4293V61.7085L60.7672 61.1127L59.4293 62.5993ZM28.2289 36.8276H4.39777V40.8276H28.2289V36.8276ZM2.98355 37.4133L1.49782 38.8991L4.32625 41.7275L5.81198 40.2418L2.98355 37.4133ZM0.912035 40.3148L0.971464 120.604L4.97146 120.601L4.91203 40.3118L0.912035 40.3148ZM1.58525 122.044L3.13041 123.53L5.90284 120.646L4.35768 119.161L1.58525 122.044ZM4.51662 124.088H28.2289V120.088H4.51662V124.088ZM30.2289 122.088V122.029H26.2289V122.088H30.2289ZM29.6431 123.443L57.872 95.2138L55.0436 92.3854L26.8147 120.614L29.6431 123.443ZM58.4578 93.7956L58.3984 64.081L54.3984 64.089L54.4578 93.8036L58.4578 93.7956ZM56.3984 66.085H56.4578V62.085H56.3984V66.085ZM57.7914 62.5945L29.5625 37.3371L26.8953 40.318L55.1242 65.5755L57.7914 62.5945ZM58.0151 93.8711L28.3004 123.586L31.1289 126.414L60.8435 96.6996L58.0151 93.8711ZM29.7146 123H0V127H29.7146V123ZM2 125V35.8561H-2V125H2ZM0 37.8561H29.7146V33.8561H0V37.8561ZM28.3767 37.3427L58.0913 64.0859L60.7672 61.1127L31.0526 34.3695L28.3767 37.3427ZM57.4293 62.5993V95.2854H61.4293V62.5993H57.4293ZM74.2866 38.8276H72.2866V40.8276H74.2866V38.8276ZM74.2866 35.8561V33.8561H72.2866V35.8561H74.2866ZM133.716 35.8561H135.716V33.8561H133.716V35.8561ZM133.716 38.8276V40.8276H135.716V38.8276H133.716ZM106.973 38.8276V36.8276H106.144L105.558 37.4133L106.973 38.8276ZM105.487 40.3133L104.073 38.8991L103.487 39.4849V40.3133H105.487ZM105.487 120.543H103.487V121.371L104.073 121.957L105.487 120.543ZM106.973 122.029L105.558 123.443L106.144 124.029H106.973V122.029ZM133.716 122.029H135.716V120.029H133.716V122.029ZM133.716 125V127H135.716V125H133.716ZM74.2866 125H72.2866V127H74.2866V125ZM74.2866 122.029V120.029H72.2866V122.029H74.2866ZM101.03 122.029V124.029H101.858L102.444 123.443L101.03 122.029ZM102.515 120.543L103.93 121.957L104.515 121.371V120.543H102.515ZM102.515 40.3133H104.515V39.4849L103.93 38.8991L102.515 40.3133ZM101.03 38.8276L102.444 37.4133L101.858 36.8276H101.03V38.8276ZM76.2866 38.8276V35.8561H72.2866V38.8276H76.2866ZM74.2866 37.8561H133.716V33.8561H74.2866V37.8561ZM131.716 35.8561V38.8276H135.716V35.8561H131.716ZM133.716 36.8276H106.973V40.8276H133.716V36.8276ZM105.558 37.4133L104.073 38.8991L106.901 41.7275L108.387 40.2418L105.558 37.4133ZM103.487 40.3133V120.543H107.487V40.3133H103.487ZM104.073 121.957L105.558 123.443L108.387 120.614L106.901 119.129L104.073 121.957ZM106.973 124.029H133.716V120.029H106.973V124.029ZM131.716 122.029V125H135.716V122.029H131.716ZM133.716 123H74.2866V127H133.716V123ZM76.2866 125V122.029H72.2866V125H76.2866ZM74.2866 124.029H101.03V120.029H74.2866V124.029ZM102.444 123.443L103.93 121.957L101.101 119.129L99.6155 120.614L102.444 123.443ZM104.515 120.543V40.3133H100.515V120.543H104.515ZM103.93 38.8991L102.444 37.4133L99.6155 40.2418L101.101 41.7275L103.93 38.8991ZM101.03 36.8276H74.2866V40.8276H101.03V36.8276ZM208.002 125V127H210.002V125H208.002ZM148.573 125H146.573V127H148.573V125ZM148.573 35.8561V33.8561H146.573V35.8561H148.573ZM208.002 35.8561H210.002V33.8561H208.002V35.8561ZM208.002 65.5707V67.5707H210.002V65.5707H208.002ZM205.031 65.5707H203.031V67.5707H205.031V65.5707ZM205.031 40.3133H207.031V39.4849L206.445 38.8991L205.031 40.3133ZM203.545 38.8276L204.959 37.4133L204.374 36.8276H203.545V38.8276ZM152.971 38.8276V36.8276H152.143L151.557 37.4133L152.971 38.8276ZM151.485 40.3133L150.071 38.8991L149.485 39.4849V40.3133H151.485ZM151.485 120.543H149.485V121.394L150.099 121.984L151.485 120.543ZM153.03 122.029L151.644 123.47L152.225 124.029H153.03V122.029ZM205.031 122.029V124.029H207.031V122.029H205.031ZM205.031 98.2568H207.031V97.4284L206.445 96.8426L205.031 98.2568ZM203.545 96.7711L204.959 95.3569L204.374 94.7711H203.545V96.7711ZM176.802 96.7711H174.802V98.7711H176.802V96.7711ZM176.802 93.7996V91.7996H174.802V93.7996H176.802ZM208.002 93.7996H210.002V91.7996H208.002V93.7996ZM208.002 123H148.573V127H208.002V123ZM150.573 125V35.8561H146.573V125H150.573ZM148.573 37.8561H208.002V33.8561H148.573V37.8561ZM206.002 35.8561V65.5707H210.002V35.8561H206.002ZM208.002 63.5707H205.031V67.5707H208.002V63.5707ZM207.031 65.5707V40.3133H203.031V65.5707H207.031ZM206.445 38.8991L204.959 37.4133L202.131 40.2418L203.617 41.7275L206.445 38.8991ZM203.545 36.8276H152.971V40.8276H203.545V36.8276ZM151.557 37.4133L150.071 38.8991L152.899 41.7275L154.385 40.2418L151.557 37.4133ZM149.485 40.3133V120.543H153.485V40.3133H149.485ZM150.099 121.984L151.644 123.47L154.417 120.587L152.871 119.101L150.099 121.984ZM153.03 124.029H205.031V120.029H153.03V124.029ZM207.031 122.029V98.2568H203.031V122.029H207.031ZM206.445 96.8426L204.959 95.3569L202.131 98.1853L203.617 99.671L206.445 96.8426ZM203.545 94.7711H176.802V98.7711H203.545V94.7711ZM178.802 96.7711V93.7996H174.802V96.7711H178.802ZM176.802 95.7996H208.002V91.7996H176.802V95.7996ZM206.002 93.7996V125H210.002V93.7996H206.002ZM222.86 38.8276H220.86V40.8276H222.86V38.8276ZM222.86 35.8561V33.8561H220.86V35.8561H222.86ZM282.289 35.8561H284.289V33.8561H282.289V35.8561ZM282.289 38.8276V40.8276H284.289V38.8276H282.289ZM255.546 38.8276V36.8276H254.717L254.132 37.4133L255.546 38.8276ZM254.06 40.3133L252.646 38.8991L252.06 39.4849V40.3133H254.06ZM254.06 120.543H252.06V121.371L252.646 121.957L254.06 120.543ZM255.546 122.029L254.132 123.443L254.717 124.029H255.546V122.029ZM282.289 122.029H284.289V120.029H282.289V122.029ZM282.289 125V127H284.289V125H282.289ZM222.86 125H220.86V127H222.86V125ZM222.86 122.029V120.029H220.86V122.029H222.86ZM249.603 122.029V124.029H250.431L251.017 123.443L249.603 122.029ZM251.089 120.543L252.503 121.957L253.089 121.371V120.543H251.089ZM251.089 40.3133H253.089V39.4849L252.503 38.8991L251.089 40.3133ZM249.603 38.8276L251.017 37.4133L250.431 36.8276H249.603V38.8276ZM224.86 38.8276V35.8561H220.86V38.8276H224.86ZM222.86 37.8561H282.289V33.8561H222.86V37.8561ZM280.289 35.8561V38.8276H284.289V35.8561H280.289ZM282.289 36.8276H255.546V40.8276H282.289V36.8276ZM254.132 37.4133L252.646 38.8991L255.474 41.7275L256.96 40.2418L254.132 37.4133ZM252.06 40.3133V120.543H256.06V40.3133H252.06ZM252.646 121.957L254.132 123.443L256.96 120.614L255.474 119.129L252.646 121.957ZM255.546 124.029H282.289V120.029H255.546V124.029ZM280.289 122.029V125H284.289V122.029H280.289ZM282.289 123H222.86V127H282.289V123ZM224.86 125V122.029H220.86V125H224.86ZM222.86 124.029H249.603V120.029H222.86V124.029ZM251.017 123.443L252.503 121.957L249.674 119.129L248.189 120.614L251.017 123.443ZM253.089 120.543V40.3133H249.089V120.543H253.089ZM252.503 38.8991L251.017 37.4133L248.189 40.2418L249.674 41.7275L252.503 38.8991ZM249.603 36.8276H222.86V40.8276H249.603V36.8276ZM297.146 38.8276H295.146V40.8276H297.146V38.8276ZM297.146 35.8561V33.8561H295.146V35.8561H297.146ZM356.576 35.8561H358.576V33.8561H356.576V35.8561ZM356.576 38.8276V40.8276H358.576V38.8276H356.576ZM329.832 38.8276V36.8276H329.004L328.418 37.4133L329.832 38.8276ZM328.347 40.3133L326.933 38.8991L326.347 39.4849V40.3133H328.347ZM328.347 125V127H330.347V125H328.347ZM325.375 125H323.375V127H325.375V125ZM325.375 40.3133H327.375V39.4849L326.789 38.8991L325.375 40.3133ZM323.89 38.8276L325.304 37.4133L324.718 36.8276H323.89V38.8276ZM299.146 38.8276V35.8561H295.146V38.8276H299.146ZM297.146 37.8561H356.576V33.8561H297.146V37.8561ZM354.576 35.8561V38.8276H358.576V35.8561H354.576ZM356.576 36.8276H329.832V40.8276H356.576V36.8276ZM328.418 37.4133L326.933 38.8991L329.761 41.7275L331.247 40.2418L328.418 37.4133ZM326.347 40.3133V125H330.347V40.3133H326.347ZM328.347 123H325.375V127H328.347V123ZM327.375 125V40.3133H323.375V125H327.375ZM326.789 38.8991L325.304 37.4133L322.475 40.2418L323.961 41.7275L326.789 38.8991ZM323.89 36.8276H297.146V40.8276H323.89V36.8276ZM395.086 92.3139L396.5 93.7281L397.086 93.1423V92.3139H395.086ZM395.086 64.085H397.086V63.2229L396.459 62.631L395.086 64.085ZM368.343 38.8276L369.716 37.3735L368.343 36.0766L366.969 37.3735L368.343 38.8276ZM341.599 64.085L340.226 62.631L339.599 63.2229V64.085H341.599ZM341.599 92.3139H339.599V93.1423L340.185 93.7281L341.599 92.3139ZM343.085 93.7996L341.671 95.2138L342.257 95.7996H343.085V93.7996ZM393.6 93.7996V95.7996H394.428L395.014 95.2138L393.6 93.7996ZM343.085 96.7711V94.7711H342.257L341.671 95.3569L343.085 96.7711ZM341.599 98.2568L340.185 96.8426L339.599 97.4284V98.2568H341.599ZM341.599 125V127H343.599V125H341.599ZM338.628 125H336.628V127H338.628V125ZM338.628 62.5993L337.253 61.1474L336.628 61.739V62.5993H338.628ZM366.857 35.8561V33.8561H366.06L365.481 34.4042L366.857 35.8561ZM369.828 35.8561L371.204 34.4042L370.625 33.8561H369.828V35.8561ZM398.057 62.5993H400.057V61.739L399.433 61.1474L398.057 62.5993ZM398.057 125V127H400.057V125H398.057ZM395.086 125H393.086V127H395.086V125ZM395.086 98.2568H397.086V97.4284L396.5 96.8426L395.086 98.2568ZM393.6 96.7711L395.014 95.3569L394.428 94.7711H393.6V96.7711ZM397.086 92.3139V64.085H393.086V92.3139H397.086ZM396.459 62.631L369.716 37.3735L366.969 40.2816L393.713 65.539L396.459 62.631ZM366.969 37.3735L340.226 62.631L342.973 65.539L369.716 40.2816L366.969 37.3735ZM339.599 64.085V92.3139H343.599V64.085H339.599ZM340.185 93.7281L341.671 95.2138L344.499 92.3854L343.014 90.8997L340.185 93.7281ZM343.085 95.7996H393.6V91.7996H343.085V95.7996ZM395.014 95.2138L396.5 93.7281L393.672 90.8997L392.186 92.3854L395.014 95.2138ZM341.671 95.3569L340.185 96.8426L343.014 99.671L344.499 98.1853L341.671 95.3569ZM339.599 98.2568V125H343.599V98.2568H339.599ZM341.599 123H338.628V127H341.599V123ZM340.628 125V62.5993H336.628V125H340.628ZM340.003 64.0512L368.232 37.308L365.481 34.4042L337.253 61.1474L340.003 64.0512ZM366.857 37.8561H369.828V33.8561H366.857V37.8561ZM368.453 37.308L396.682 64.0512L399.433 61.1474L371.204 34.4042L368.453 37.308ZM396.057 62.5993V125H400.057V62.5993H396.057ZM398.057 123H395.086V127H398.057V123ZM397.086 125V98.2568H393.086V125H397.086ZM396.5 96.8426L395.014 95.3569L392.186 98.1853L393.672 99.671L396.5 96.8426ZM393.6 94.7711H343.085V98.7711H393.6V94.7711ZM472.344 122.029H474.344V120.029H472.344V122.029ZM472.344 125V127H474.344V125H472.344ZM412.915 125H410.915V127H412.915V125ZM412.915 35.8561V33.8561H410.915V35.8561H412.915ZM415.827 35.8561H417.827V33.8561H415.827V35.8561ZM415.827 120.543H413.827V121.394L414.44 121.984L415.827 120.543ZM417.372 122.029L415.986 123.47L416.566 124.029H417.372V122.029ZM470.344 122.029V125H474.344V122.029H470.344ZM472.344 123H412.915V127H472.344V123ZM414.915 125V35.8561H410.915V125H414.915ZM412.915 37.8561H415.827V33.8561H412.915V37.8561ZM413.827 35.8561V120.543H417.827V35.8561H413.827ZM414.44 121.984L415.986 123.47L418.758 120.587L417.213 119.101L414.44 121.984ZM417.372 124.029H472.344V120.029H417.372V124.029ZM620.917 125V127H622.917V125H620.917ZM561.488 125H559.488V127H561.488V125ZM561.488 35.8561V33.8561H559.488V35.8561H561.488ZM620.917 35.8561H622.917V33.8561H620.917V35.8561ZM620.917 65.5707V67.5707H622.917V65.5707H620.917ZM617.946 65.5707H615.946V67.5707H617.946V65.5707ZM617.946 40.3133H619.946V39.4849L619.36 38.8991L617.946 40.3133ZM616.46 38.8276L617.874 37.4133L617.288 36.8276H616.46V38.8276ZM565.886 38.8276V36.8276H565.057L564.471 37.4133L565.886 38.8276ZM564.4 40.3133L562.986 38.8991L562.4 39.4849V40.3133H564.4ZM564.4 120.543H562.4V121.394L563.014 121.984L564.4 120.543ZM565.945 122.029L564.559 123.47L565.139 124.029H565.945V122.029ZM617.946 122.029V124.029H619.946V122.029H617.946ZM617.946 98.2568H619.946V97.4284L619.36 96.8426L617.946 98.2568ZM616.46 96.7711L617.874 95.3569L617.288 94.7711H616.46V96.7711ZM589.717 96.7711H587.717V98.7711H589.717V96.7711ZM589.717 93.7996V91.7996H587.717V93.7996H589.717ZM620.917 93.7996H622.917V91.7996H620.917V93.7996ZM620.917 123H561.488V127H620.917V123ZM563.488 125V35.8561H559.488V125H563.488ZM561.488 37.8561H620.917V33.8561H561.488V37.8561ZM618.917 35.8561V65.5707H622.917V35.8561H618.917ZM620.917 63.5707H617.946V67.5707H620.917V63.5707ZM619.946 65.5707V40.3133H615.946V65.5707H619.946ZM619.36 38.8991L617.874 37.4133L615.046 40.2418L616.531 41.7275L619.36 38.8991ZM616.46 36.8276H565.886V40.8276H616.46V36.8276ZM564.471 37.4133L562.986 38.8991L565.814 41.7275L567.3 40.2418L564.471 37.4133ZM562.4 40.3133V120.543H566.4V40.3133H562.4ZM563.014 121.984L564.559 123.47L567.331 120.587L565.786 119.101L563.014 121.984ZM565.945 124.029H617.946V120.029H565.945V124.029ZM619.946 122.029V98.2568H615.946V122.029H619.946ZM619.36 96.8426L617.874 95.3569L615.046 98.1853L616.531 99.671L619.36 96.8426ZM616.46 94.7711H589.717V98.7711H616.46V94.7711ZM591.717 96.7711V93.7996H587.717V96.7711H591.717ZM589.717 95.7996H620.917V91.7996H589.717V95.7996ZM618.917 93.7996V125H622.917V93.7996H618.917ZM692.232 92.3139L693.646 93.7281L694.232 93.1423V92.3139H692.232ZM692.232 64.085H694.232V63.2229L693.605 62.631L692.232 64.085ZM665.489 38.8276L666.862 37.3735L665.489 36.0766L664.116 37.3735L665.489 38.8276ZM638.746 64.085L637.373 62.631L636.746 63.2229V64.085H638.746ZM638.746 92.3139H636.746V93.1423L637.332 93.7281L638.746 92.3139ZM640.232 93.7996L638.817 95.2138L639.403 95.7996H640.232V93.7996ZM690.746 93.7996V95.7996H691.575L692.161 95.2138L690.746 93.7996ZM640.232 96.7711V94.7711H639.403L638.817 95.3569L640.232 96.7711ZM638.746 98.2568L637.332 96.8426L636.746 97.4284V98.2568H638.746ZM638.746 125V127H640.746V125H638.746ZM635.774 125H633.774V127H635.774V125ZM635.774 62.5993L634.399 61.1474L633.774 61.739V62.5993H635.774ZM664.003 35.8561V33.8561H663.206L662.628 34.4042L664.003 35.8561ZM666.975 35.8561L668.35 34.4042L667.772 33.8561H666.975V35.8561ZM695.204 62.5993H697.204V61.739L696.579 61.1474L695.204 62.5993ZM695.204 125V127H697.204V125H695.204ZM692.232 125H690.232V127H692.232V125ZM692.232 98.2568H694.232V97.4284L693.646 96.8426L692.232 98.2568ZM690.746 96.7711L692.161 95.3569L691.575 94.7711H690.746V96.7711ZM694.232 92.3139V64.085H690.232V92.3139H694.232ZM693.605 62.631L666.862 37.3735L664.116 40.2816L690.859 65.539L693.605 62.631ZM664.116 37.3735L637.373 62.631L640.119 65.539L666.862 40.2816L664.116 37.3735ZM636.746 64.085V92.3139H640.746V64.085H636.746ZM637.332 93.7281L638.817 95.2138L641.646 92.3854L640.16 90.8997L637.332 93.7281ZM640.232 95.7996H690.746V91.7996H640.232V95.7996ZM692.161 95.2138L693.646 93.7281L690.818 90.8997L689.332 92.3854L692.161 95.2138ZM638.817 95.3569L637.332 96.8426L640.16 99.671L641.646 98.1853L638.817 95.3569ZM636.746 98.2568V125H640.746V98.2568H636.746ZM638.746 123H635.774V127H638.746V123ZM637.774 125V62.5993H633.774V125H637.774ZM637.15 64.0512L665.379 37.308L662.628 34.4042L634.399 61.1474L637.15 64.0512ZM664.003 37.8561H666.975V33.8561H664.003V37.8561ZM665.599 37.308L693.828 64.0512L696.579 61.1474L668.35 34.4042L665.599 37.308ZM693.204 62.5993V125H697.204V62.5993H693.204ZM695.204 123H692.232V127H695.204V123ZM694.232 125V98.2568H690.232V125H694.232ZM693.646 96.8426L692.161 95.3569L689.332 98.1853L690.818 99.671L693.646 96.8426ZM690.746 94.7711H640.232V98.7711H690.746V94.7711ZM714.518 38.8276V36.8276H713.69L713.104 37.4133L714.518 38.8276ZM713.032 40.3133L711.618 38.8991L711.032 39.4849V40.3133H713.032ZM713.032 77.4566H711.032V78.3081L711.646 78.8982L713.032 77.4566ZM714.578 78.9423L713.191 80.384L713.772 80.9423H714.578V78.9423ZM765.033 78.9423V80.9423H765.885L766.475 80.3285L765.033 78.9423ZM766.519 77.3972L767.96 78.7834L768.519 78.2027V77.3972H766.519ZM766.519 40.3133H768.519V39.5087L767.962 38.9282L766.519 40.3133ZM765.092 38.8276L766.535 37.4425L765.945 36.8276H765.092V38.8276ZM710.061 35.8561V33.8561H708.061V35.8561H710.061ZM769.49 35.8561H771.49V33.8561H769.49V35.8561ZM769.49 81.9138V83.9138H771.49V81.9138H769.49ZM715.528 81.9138V79.9138H709.486L714.335 83.5189L715.528 81.9138ZM769.49 122.029H771.49V121.023L770.683 120.423L769.49 122.029ZM769.49 125V127H771.49V125H769.49ZM768.005 125L766.811 126.605L767.342 127H768.005V125ZM713.032 84.1127L714.226 82.5079L711.032 80.1325V84.1127H713.032ZM713.032 125V127H715.032V125H713.032ZM710.061 125H708.061V127H710.061V125ZM713.104 37.4133L711.618 38.8991L714.447 41.7275L715.932 40.2418L713.104 37.4133ZM711.032 40.3133V77.4566H715.032V40.3133H711.032ZM711.646 78.8982L713.191 80.384L715.964 77.5006L714.419 76.0149L711.646 78.8982ZM714.578 80.9423H765.033V76.9423H714.578V80.9423ZM766.475 80.3285L767.96 78.7834L765.077 76.0109L763.591 77.5561L766.475 80.3285ZM768.519 77.3972V40.3133H764.519V77.3972H768.519ZM767.962 38.9282L766.535 37.4425L763.65 40.2126L765.076 41.6983L767.962 38.9282ZM765.092 36.8276H714.518V40.8276H765.092V36.8276ZM710.061 37.8561H769.49V33.8561H710.061V37.8561ZM767.49 35.8561V81.9138H771.49V35.8561H767.49ZM769.49 79.9138H715.528V83.9138H769.49V79.9138ZM714.335 83.5189L768.297 123.634L770.683 120.423L716.722 80.3087L714.335 83.5189ZM767.49 122.029V125H771.49V122.029H767.49ZM769.49 123H768.005V127H769.49V123ZM769.198 123.395L714.226 82.5079L711.839 85.7174L766.811 126.605L769.198 123.395ZM711.032 84.1127V125H715.032V84.1127H711.032ZM713.032 123H710.061V127H713.032V123ZM712.061 125V35.8561H708.061V125H712.061ZM812.576 38.8276L813.91 37.3371L813.341 36.8276H812.576V38.8276ZM788.745 38.8276V36.8276H787.917L787.331 37.4133L788.745 38.8276ZM787.26 40.3133L785.845 38.8991L785.259 39.4855L785.26 40.3148L787.26 40.3133ZM787.319 120.602L785.319 120.604L785.32 121.454L785.933 122.044L787.319 120.602ZM788.864 122.088L787.478 123.53L788.059 124.088H788.864V122.088ZM812.576 122.088V124.088H814.576V122.088H812.576ZM812.576 122.029L811.162 120.614L810.576 121.2V122.029H812.576ZM840.805 93.7996L842.22 95.2138L842.807 94.6264L842.805 93.7956L840.805 93.7996ZM840.746 64.085V62.085H838.742L838.746 64.089L840.746 64.085ZM840.805 64.085V66.085H846.04L842.139 62.5945L840.805 64.085ZM843.777 95.2854L845.191 96.6996L845.777 96.1138V95.2854H843.777ZM814.062 125V127H814.891L815.476 126.414L814.062 125ZM784.348 125H782.348V127H784.348V125ZM784.348 35.8561V33.8561H782.348V35.8561H784.348ZM814.062 35.8561L815.4 34.3695L814.83 33.8561H814.062V35.8561ZM843.777 62.5993H845.777V61.7085L845.115 61.1127L843.777 62.5993ZM812.576 36.8276H788.745V40.8276H812.576V36.8276ZM787.331 37.4133L785.845 38.8991L788.674 41.7275L790.16 40.2418L787.331 37.4133ZM785.26 40.3148L785.319 120.604L789.319 120.601L789.26 40.3118L785.26 40.3148ZM785.933 122.044L787.478 123.53L790.25 120.646L788.705 119.161L785.933 122.044ZM788.864 124.088H812.576V120.088H788.864V124.088ZM814.576 122.088V122.029H810.576V122.088H814.576ZM813.991 123.443L842.22 95.2138L839.391 92.3854L811.162 120.614L813.991 123.443ZM842.805 93.7956L842.746 64.081L838.746 64.089L838.805 93.8036L842.805 93.7956ZM840.746 66.085H840.805V62.085H840.746V66.085ZM842.139 62.5945L813.91 37.3371L811.243 40.318L839.472 65.5755L842.139 62.5945ZM842.363 93.8711L812.648 123.586L815.476 126.414L845.191 96.6996L842.363 93.8711ZM814.062 123H784.348V127H814.062V123ZM786.348 125V35.8561H782.348V125H786.348ZM784.348 37.8561H814.062V33.8561H784.348V37.8561ZM812.724 37.3427L842.439 64.0859L845.115 61.1127L815.4 34.3695L812.724 37.3427ZM841.777 62.5993V95.2854H845.777V62.5993H841.777ZM858.634 125H856.634V127H858.634V125ZM858.634 35.8561V33.8561H856.634V35.8561H858.634ZM918.063 35.8561H920.063V33.8561H918.063V35.8561ZM918.063 38.8276V40.8276H920.063V38.8276H918.063ZM863.091 38.8276V36.8276H862.263L861.677 37.4133L863.091 38.8276ZM861.606 40.3133L860.191 38.8991L859.606 39.4849V40.3133H861.606ZM861.606 77.4566H859.606V78.3081L860.219 78.8982L861.606 77.4566ZM863.151 78.9423L861.765 80.384L862.345 80.9423H863.151V78.9423ZM904.692 78.9423H906.692V76.9423H904.692V78.9423ZM904.692 81.9138V83.9138H906.692V81.9138H904.692ZM863.091 81.9138V79.9138H862.263L861.677 80.4996L863.091 81.9138ZM861.606 83.3995L860.191 81.9853L859.606 82.5711V83.3995H861.606ZM861.606 120.543H859.606V121.371L860.191 121.957L861.606 120.543ZM863.091 122.029L861.677 123.443L862.263 124.029H863.091V122.029ZM918.063 122.029H920.063V120.029H918.063V122.029ZM918.063 125V127H920.063V125H918.063ZM860.634 125V35.8561H856.634V125H860.634ZM858.634 37.8561H918.063V33.8561H858.634V37.8561ZM916.063 35.8561V38.8276H920.063V35.8561H916.063ZM918.063 36.8276H863.091V40.8276H918.063V36.8276ZM861.677 37.4133L860.191 38.8991L863.02 41.7275L864.506 40.2418L861.677 37.4133ZM859.606 40.3133V77.4566H863.606V40.3133H859.606ZM860.219 78.8982L861.765 80.384L864.537 77.5006L862.992 76.0149L860.219 78.8982ZM863.151 80.9423H904.692V76.9423H863.151V80.9423ZM902.692 78.9423V81.9138H906.692V78.9423H902.692ZM904.692 79.9138H863.091V83.9138H904.692V79.9138ZM861.677 80.4996L860.191 81.9853L863.02 84.8137L864.506 83.328L861.677 80.4996ZM859.606 83.3995V120.543H863.606V83.3995H859.606ZM860.191 121.957L861.677 123.443L864.506 120.614L863.02 119.129L860.191 121.957ZM863.091 124.029H918.063V120.029H863.091V124.029ZM916.063 122.029V125H920.063V122.029H916.063ZM918.063 123H858.634V127H918.063V123ZM935.892 40.3133L937.597 39.2668L933.892 33.234V40.3133H935.892ZM935.892 125V127H937.892V125H935.892ZM932.921 125H930.921V127H932.921V125ZM932.921 35.8561V33.8561H930.921V35.8561H932.921ZM937.378 35.8561L939.082 34.8096L938.497 33.8561H937.378V35.8561ZM989.379 120.543L987.674 121.589L991.379 127.622V120.543H989.379ZM989.379 35.8561V33.8561H987.379V35.8561H989.379ZM992.35 35.8561H994.35V33.8561H992.35V35.8561ZM992.35 125V127H994.35V125H992.35ZM987.893 125L986.188 126.047L986.774 127H987.893V125ZM933.892 40.3133V125H937.892V40.3133H933.892ZM935.892 123H932.921V127H935.892V123ZM934.921 125V35.8561H930.921V125H934.921ZM932.921 37.8561H937.378V33.8561H932.921V37.8561ZM935.674 36.9026L987.674 121.589L991.083 119.496L939.082 34.8096L935.674 36.9026ZM991.379 120.543V35.8561H987.379V120.543H991.379ZM989.379 37.8561H992.35V33.8561H989.379V37.8561ZM990.35 35.8561V125H994.35V35.8561H990.35ZM992.35 123H987.893V127H992.35V123ZM989.597 123.953L937.597 39.2668L934.188 41.3598L986.188 126.047L989.597 123.953Z" fill="white"/>
<path d="M179.957 95.5296C179.957 100.152 176.359 103.837 171.996 103.837C167.633 103.837 164.035 100.152 164.035 95.5296C164.035 90.9074 167.633 87.2226 171.996 87.2226C176.359 87.2226 179.957 90.9074 179.957 95.5296Z" fill="#2400FF" stroke="white" stroke-width="1.89188"/>
<path d="M590.075 95.5296C590.075 100.152 586.477 103.837 582.114 103.837C577.751 103.837 574.153 100.152 574.153 95.5296C574.153 90.9074 577.751 87.2226 582.114 87.2226C586.477 87.2226 590.075 90.9074 590.075 95.5296Z" fill="#2400FF" stroke="white" stroke-width="1.89188"/>
<path d="M999.8 37.629C999.8 42.2512 996.202 45.936 991.839 45.936C987.476 45.936 983.879 42.2512 983.879 37.629C983.879 33.0068 987.476 29.3219 991.839 29.3219C996.202 29.3219 999.8 33.0068 999.8 37.629Z" fill="#0A0A0C" stroke="white" stroke-width="1.89188"/>
</svg>
