<svg width="1918" height="1123" viewBox="0 0 1918 1123" fill="none" xmlns="http://www.w3.org/2000/svg">
<path d="M1918 443.09C1918 630.365 1488.19 726 958 726C427.807 726 -2 630.365 -2 443.09C-2 255.816 427.807 104 958 104C1488.19 104 1918 255.816 1918 443.09Z" fill="url(#paint0_diamond_1_99)" fill-opacity="0.91"/>
<path d="M460.226 223.269H480.729C482.18 223.269 483.632 223.874 485.083 225.084L487.26 226.898C488.712 228.108 489.437 229.62 489.437 231.434V256.835C489.437 258.65 488.712 260.162 487.26 261.371L485.083 263.186C483.632 264.395 482.18 265 480.729 265H453.513C452.061 265 450.61 264.395 449.158 263.186L446.981 261.371C445.53 260.162 444.804 258.65 444.804 256.835V253.207H452.424V254.93C452.424 255.837 452.455 256.442 452.515 256.745C452.636 256.987 452.969 257.319 453.513 257.743C454.057 258.166 454.481 258.438 454.783 258.559C455.085 258.619 455.781 258.65 456.869 258.65H477.372C478.461 258.65 479.156 258.619 479.458 258.559C479.761 258.438 480.184 258.166 480.729 257.743C481.273 257.319 481.575 256.987 481.636 256.745C481.757 256.442 481.817 255.837 481.817 254.93V233.339C481.817 232.432 481.757 231.857 481.636 231.616C481.575 231.313 481.273 230.95 480.729 230.527C480.184 230.104 479.761 229.862 479.458 229.801C479.156 229.68 478.461 229.62 477.372 229.62H459.863C458.412 229.62 456.96 230.225 455.509 231.434C454.057 232.644 453.331 233.853 453.331 235.063H445.711V201.497H488.349V207.847H453.331V227.715H453.694C453.755 227.049 454.42 226.233 455.69 225.265C457.505 223.935 459.016 223.269 460.226 223.269Z" fill="white" fill-opacity="0.53"/>
<path d="M633.226 657.269H653.729C655.18 657.269 656.632 657.874 658.083 659.084L660.26 660.898C661.712 662.108 662.437 663.62 662.437 665.434V690.835C662.437 692.65 661.712 694.162 660.26 695.371L658.083 697.186C656.632 698.395 655.18 699 653.729 699H626.513C625.061 699 623.61 698.395 622.158 697.186L619.981 695.371C618.53 694.162 617.804 692.65 617.804 690.835V687.207H625.424V688.93C625.424 689.837 625.455 690.442 625.515 690.745C625.636 690.987 625.969 691.319 626.513 691.743C627.057 692.166 627.481 692.438 627.783 692.559C628.085 692.619 628.781 692.65 629.869 692.65H650.372C651.461 692.65 652.156 692.619 652.458 692.559C652.761 692.438 653.184 692.166 653.729 691.743C654.273 691.319 654.575 690.987 654.636 690.745C654.757 690.442 654.817 689.837 654.817 688.93V667.339C654.817 666.432 654.757 665.857 654.636 665.616C654.575 665.313 654.273 664.95 653.729 664.527C653.184 664.104 652.761 663.862 652.458 663.801C652.156 663.68 651.461 663.62 650.372 663.62H632.863C631.412 663.62 629.96 664.225 628.509 665.434C627.057 666.644 626.331 667.853 626.331 669.063H618.711V635.497H661.349V641.847H626.331V661.715H626.694C626.755 661.049 627.42 660.233 628.69 659.265C630.505 657.935 632.016 657.269 633.226 657.269Z" fill="white" fill-opacity="0.53"/>
<path d="M1705.23 493.269H1725.73C1727.18 493.269 1728.63 493.874 1730.08 495.084L1732.26 496.898C1733.71 498.108 1734.44 499.62 1734.44 501.434V526.835C1734.44 528.65 1733.71 530.162 1732.26 531.371L1730.08 533.186C1728.63 534.395 1727.18 535 1725.73 535H1698.51C1697.06 535 1695.61 534.395 1694.16 533.186L1691.98 531.371C1690.53 530.162 1689.8 528.65 1689.8 526.835V523.207H1697.42V524.93C1697.42 525.837 1697.45 526.442 1697.51 526.745C1697.64 526.987 1697.97 527.319 1698.51 527.743C1699.06 528.166 1699.48 528.438 1699.78 528.559C1700.09 528.619 1700.78 528.65 1701.87 528.65H1722.37C1723.46 528.65 1724.16 528.619 1724.46 528.559C1724.76 528.438 1725.18 528.166 1725.73 527.743C1726.27 527.319 1726.58 526.987 1726.64 526.745C1726.76 526.442 1726.82 525.837 1726.82 524.93V503.339C1726.82 502.432 1726.76 501.857 1726.64 501.616C1726.58 501.313 1726.27 500.95 1725.73 500.527C1725.18 500.104 1724.76 499.862 1724.46 499.801C1724.16 499.68 1723.46 499.62 1722.37 499.62H1704.86C1703.41 499.62 1701.96 500.225 1700.51 501.434C1699.06 502.644 1698.33 503.853 1698.33 505.063H1690.71V471.497H1733.35V477.847H1698.33V497.715H1698.69C1698.75 497.049 1699.42 496.233 1700.69 495.265C1702.5 493.935 1704.02 493.269 1705.23 493.269Z" fill="white" fill-opacity="0.53"/>
<path d="M956.226 761.269H976.729C978.18 761.269 979.632 761.874 981.083 763.084L983.26 764.898C984.712 766.108 985.437 767.62 985.437 769.434V794.835C985.437 796.65 984.712 798.162 983.26 799.371L981.083 801.186C979.632 802.395 978.18 803 976.729 803H949.513C948.061 803 946.61 802.395 945.158 801.186L942.981 799.371C941.53 798.162 940.804 796.65 940.804 794.835V791.207H948.424V792.93C948.424 793.837 948.455 794.442 948.515 794.745C948.636 794.987 948.969 795.319 949.513 795.743C950.057 796.166 950.481 796.438 950.783 796.559C951.085 796.619 951.781 796.65 952.869 796.65H973.372C974.461 796.65 975.156 796.619 975.458 796.559C975.761 796.438 976.184 796.166 976.729 795.743C977.273 795.319 977.575 794.987 977.636 794.745C977.757 794.442 977.817 793.837 977.817 792.93V771.339C977.817 770.432 977.757 769.857 977.636 769.616C977.575 769.313 977.273 768.95 976.729 768.527C976.184 768.104 975.761 767.862 975.458 767.801C975.156 767.68 974.461 767.62 973.372 767.62H955.863C954.412 767.62 952.96 768.225 951.509 769.434C950.057 770.644 949.331 771.853 949.331 773.063H941.711V739.497H984.349V745.847H949.331V765.715H949.694C949.755 765.049 950.42 764.233 951.69 763.265C953.505 761.935 955.016 761.269 956.226 761.269Z" fill="white" fill-opacity="0.53"/>
<path d="M567.127 100.745H621.014C623.191 100.745 625.368 101.653 627.546 103.467L630.811 106.189C632.989 108.003 634.077 110.271 634.077 112.992V183.753C634.077 186.475 632.989 188.743 630.811 190.557L627.546 193.278C625.368 195.093 623.191 196 621.014 196H567.127C564.95 196 562.772 195.093 560.595 193.278L557.329 190.557C555.152 188.743 554.063 186.475 554.063 183.753V112.992C554.063 110.271 555.152 108.003 557.329 106.189L560.595 103.467C562.772 101.653 564.95 100.745 567.127 100.745ZM622.647 180.895V115.85C622.647 114.489 622.556 113.627 622.375 113.265C622.284 112.811 621.83 112.267 621.014 111.632C620.197 110.997 619.562 110.634 619.109 110.543C618.655 110.362 617.612 110.271 615.979 110.271H572.162C570.529 110.271 569.486 110.362 569.032 110.543C568.578 110.634 567.943 110.997 567.127 111.632C566.311 112.267 565.812 112.811 565.63 113.265C565.539 113.627 565.494 114.489 565.494 115.85V180.895C565.494 182.256 565.539 183.163 565.63 183.617C565.812 183.98 566.311 184.479 567.127 185.114C567.943 185.749 568.578 186.157 569.032 186.338C569.486 186.429 570.529 186.475 572.162 186.475H615.979C617.612 186.475 618.655 186.429 619.109 186.338C619.562 186.157 620.197 185.749 621.014 185.114C621.83 184.479 622.284 183.98 622.375 183.617C622.556 183.163 622.647 182.256 622.647 180.895Z" fill="white" fill-opacity="0.53"/>
<path d="M490.83 508.891H550.291C552.694 508.891 555.096 509.893 557.499 511.895L561.102 514.898C563.505 516.9 564.706 519.402 564.706 522.405V600.486C564.706 603.489 563.505 605.992 561.102 607.994L557.499 610.997C555.096 612.999 552.694 614 550.291 614H490.83C488.427 614 486.025 612.999 483.622 610.997L480.019 607.994C477.616 605.992 476.415 603.489 476.415 600.486V522.405C476.415 519.402 477.616 516.9 480.019 514.898L483.622 511.895C486.025 509.893 488.427 508.891 490.83 508.891ZM552.093 597.333V525.559C552.093 524.057 551.993 523.106 551.793 522.706C551.693 522.205 551.192 521.605 550.291 520.904C549.39 520.203 548.69 519.803 548.189 519.703C547.688 519.502 546.537 519.402 544.735 519.402H496.386C494.584 519.402 493.432 519.502 492.932 519.703C492.431 519.803 491.731 520.203 490.83 520.904C489.929 521.605 489.378 522.205 489.178 522.706C489.078 523.106 489.028 524.057 489.028 525.559V597.333C489.028 598.834 489.078 599.835 489.178 600.336C489.378 600.736 489.929 601.287 490.83 601.988C491.731 602.688 492.431 603.139 492.932 603.339C493.432 603.439 494.584 603.489 496.386 603.489H544.735C546.537 603.489 547.688 603.439 548.189 603.339C548.69 603.139 549.39 602.688 550.291 601.988C551.192 601.287 551.693 600.736 551.793 600.336C551.993 599.835 552.093 598.834 552.093 597.333Z" fill="white" fill-opacity="0.53"/>
<path d="M1539.83 391.891H1599.29C1601.69 391.891 1604.1 392.893 1606.5 394.895L1610.1 397.898C1612.5 399.9 1613.71 402.402 1613.71 405.405V483.486C1613.71 486.489 1612.5 488.992 1610.1 490.994L1606.5 493.997C1604.1 495.999 1601.69 497 1599.29 497H1539.83C1537.43 497 1535.02 495.999 1532.62 493.997L1529.02 490.994C1526.62 488.992 1525.41 486.489 1525.41 483.486V405.405C1525.41 402.402 1526.62 399.9 1529.02 397.898L1532.62 394.895C1535.02 392.893 1537.43 391.891 1539.83 391.891ZM1601.09 480.333V408.559C1601.09 407.057 1600.99 406.106 1600.79 405.706C1600.69 405.205 1600.19 404.605 1599.29 403.904C1598.39 403.203 1597.69 402.803 1597.19 402.703C1596.69 402.502 1595.54 402.402 1593.74 402.402H1545.39C1543.58 402.402 1542.43 402.502 1541.93 402.703C1541.43 402.803 1540.73 403.203 1539.83 403.904C1538.93 404.605 1538.38 405.205 1538.18 405.706C1538.08 406.106 1538.03 407.057 1538.03 408.559V480.333C1538.03 481.834 1538.08 482.835 1538.18 483.336C1538.38 483.736 1538.93 484.287 1539.83 484.988C1540.73 485.688 1541.43 486.139 1541.93 486.339C1542.43 486.439 1543.58 486.489 1545.39 486.489H1593.74C1595.54 486.489 1596.69 486.439 1597.19 486.339C1597.69 486.139 1598.39 485.688 1599.29 484.988C1600.19 484.287 1600.69 483.736 1600.79 483.336C1600.99 482.835 1601.09 481.834 1601.09 480.333Z" fill="white" fill-opacity="0.53"/>
<path d="M1107.83 696.891H1167.29C1169.69 696.891 1172.1 697.893 1174.5 699.895L1178.1 702.898C1180.5 704.9 1181.71 707.402 1181.71 710.405V788.486C1181.71 791.489 1180.5 793.992 1178.1 795.994L1174.5 798.997C1172.1 800.999 1169.69 802 1167.29 802H1107.83C1105.43 802 1103.02 800.999 1100.62 798.997L1097.02 795.994C1094.62 793.992 1093.41 791.489 1093.41 788.486V710.405C1093.41 707.402 1094.62 704.9 1097.02 702.898L1100.62 699.895C1103.02 697.893 1105.43 696.891 1107.83 696.891ZM1169.09 785.333V713.559C1169.09 712.057 1168.99 711.106 1168.79 710.706C1168.69 710.205 1168.19 709.605 1167.29 708.904C1166.39 708.203 1165.69 707.803 1165.19 707.703C1164.69 707.502 1163.54 707.402 1161.74 707.402H1113.39C1111.58 707.402 1110.43 707.502 1109.93 707.703C1109.43 707.803 1108.73 708.203 1107.83 708.904C1106.93 709.605 1106.38 710.205 1106.18 710.706C1106.08 711.106 1106.03 712.057 1106.03 713.559V785.333C1106.03 786.834 1106.08 787.835 1106.18 788.336C1106.38 788.736 1106.93 789.287 1107.83 789.988C1108.73 790.688 1109.43 791.139 1109.93 791.339C1110.43 791.439 1111.58 791.489 1113.39 791.489H1161.74C1163.54 791.489 1164.69 791.439 1165.19 791.339C1165.69 791.139 1166.39 790.688 1167.29 789.988C1168.19 789.287 1168.69 788.736 1168.79 788.336C1168.99 787.835 1169.09 786.834 1169.09 785.333Z" fill="white" fill-opacity="0.53"/>
<path d="M828.973 133.108H808.652V128.511C808.652 126.092 808.49 124.56 808.168 123.915C808.007 123.108 807.2 122.141 805.749 121.012C804.297 119.883 803.168 119.238 802.362 119.076C801.555 118.754 799.701 118.593 796.798 118.593H738.738C735.835 118.593 733.98 118.754 733.174 119.076C732.367 119.238 731.238 119.883 729.787 121.012C728.335 122.141 727.448 123.108 727.126 123.915C726.965 124.56 726.884 126.092 726.884 128.511V176.653H727.852L729.061 175.443C734.706 169.798 739.141 166.976 742.367 166.976H808.168C812.038 166.976 815.909 168.589 819.78 171.814L825.586 176.653C829.456 179.878 831.392 183.91 831.392 188.748V249.228C831.392 254.066 829.456 258.098 825.586 261.323L819.78 266.162C815.909 269.387 812.038 271 808.168 271H729.787C725.916 271 722.046 269.387 718.175 266.162L712.369 261.323C708.498 258.098 706.563 254.066 706.563 249.228V123.431C706.563 118.593 708.498 114.561 712.369 111.335L718.175 106.497C722.046 103.271 725.916 101.658 729.787 101.658H805.749C809.619 101.658 813.49 103.271 817.361 106.497L823.167 111.335C827.037 114.561 828.973 118.593 828.973 123.431V133.108ZM811.071 244.147V193.829C811.071 191.409 810.91 189.877 810.587 189.232C810.426 188.426 809.619 187.458 808.168 186.329C806.716 185.2 805.587 184.555 804.781 184.394C803.975 184.071 802.12 183.91 799.217 183.91H744.786C741.721 183.91 739.625 184.071 738.496 184.394C737.528 184.716 735.593 185.765 732.69 187.539C728.98 189.797 727.045 191.813 726.884 193.587V244.147C726.884 246.566 726.965 248.179 727.126 248.986C727.448 249.631 728.335 250.518 729.787 251.647C731.238 252.776 732.367 253.501 733.174 253.824C733.98 253.985 735.835 254.066 738.738 254.066H799.217C802.12 254.066 803.975 253.985 804.781 253.824C805.587 253.501 806.716 252.776 808.168 251.647C809.619 250.518 810.426 249.631 810.587 248.986C810.91 248.179 811.071 246.566 811.071 244.147Z" fill="white" fill-opacity="0.53"/>
<path d="M964.723 577.176H949.128V573.648C949.128 571.792 949.004 570.616 948.757 570.121C948.633 569.502 948.014 568.759 946.9 567.893C945.786 567.026 944.92 566.531 944.301 566.408C943.682 566.16 942.259 566.036 940.031 566.036H895.473C893.245 566.036 891.822 566.16 891.203 566.408C890.584 566.531 889.718 567.026 888.604 567.893C887.49 568.759 886.809 569.502 886.562 570.121C886.438 570.616 886.376 571.792 886.376 573.648V610.594H887.119L888.047 609.666C892.379 605.334 895.783 603.168 898.258 603.168H948.757C951.727 603.168 954.698 604.405 957.668 606.881L962.124 610.594C965.095 613.069 966.58 616.164 966.58 619.877V666.291C966.58 670.004 965.095 673.098 962.124 675.574L957.668 679.287C954.698 681.762 951.727 683 948.757 683H888.604C885.633 683 882.663 681.762 879.692 679.287L875.237 675.574C872.266 673.098 870.781 670.004 870.781 666.291V569.749C870.781 566.036 872.266 562.942 875.237 560.466L879.692 556.753C882.663 554.278 885.633 553.04 888.604 553.04H946.9C949.871 553.04 952.841 554.278 955.812 556.753L960.267 560.466C963.238 562.942 964.723 566.036 964.723 569.749V577.176ZM950.985 662.392V623.775C950.985 621.919 950.861 620.743 950.613 620.248C950.489 619.629 949.871 618.887 948.757 618.02C947.643 617.154 946.776 616.659 946.158 616.535C945.539 616.287 944.115 616.164 941.887 616.164H900.115C897.763 616.164 896.154 616.287 895.288 616.535C894.545 616.782 893.06 617.587 890.832 618.948C887.985 620.681 886.5 622.228 886.376 623.59V662.392C886.376 664.249 886.438 665.486 886.562 666.105C886.809 666.6 887.49 667.281 888.604 668.147C889.718 669.014 890.584 669.571 891.203 669.818C891.822 669.942 893.245 670.004 895.473 670.004H941.887C944.115 670.004 945.539 669.942 946.158 669.818C946.776 669.571 947.643 669.014 948.757 668.147C949.871 667.281 950.489 666.6 950.613 666.105C950.861 665.486 950.985 664.249 950.985 662.392Z" fill="white" fill-opacity="0.53"/>
<path d="M1275.62 354.207H1283.24V355.93C1283.24 356.837 1283.27 357.442 1283.33 357.745C1283.45 357.987 1283.78 358.319 1284.33 358.743C1284.87 359.166 1285.29 359.438 1285.6 359.559C1285.9 359.619 1286.6 359.65 1287.68 359.65H1309.46C1310.54 359.65 1311.24 359.619 1311.54 359.559C1311.85 359.438 1312.27 359.166 1312.81 358.743C1313.36 358.319 1313.66 357.987 1313.72 357.745C1313.84 357.442 1313.9 356.837 1313.9 355.93V337.877H1313.54L1313.09 338.331C1310.97 340.448 1309.31 341.506 1308.1 341.506H1283.42C1281.97 341.506 1280.52 340.901 1279.07 339.692L1276.89 337.877C1275.44 336.668 1274.71 335.156 1274.71 333.341V310.662C1274.71 308.847 1275.44 307.335 1276.89 306.126L1279.07 304.311C1280.52 303.102 1281.97 302.497 1283.42 302.497H1312.81C1314.26 302.497 1315.72 303.102 1317.17 304.311L1319.34 306.126C1320.8 307.335 1321.52 308.847 1321.52 310.662V357.835C1321.52 359.65 1320.8 361.162 1319.34 362.371L1317.17 364.186C1315.72 365.395 1314.26 366 1312.81 366H1284.33C1282.88 366 1281.42 365.395 1279.97 364.186L1277.8 362.371C1276.34 361.162 1275.62 359.65 1275.62 357.835V354.207ZM1282.33 312.567V331.436C1282.33 332.343 1282.36 332.948 1282.42 333.251C1282.54 333.492 1282.88 333.825 1283.42 334.248C1283.96 334.672 1284.39 334.944 1284.69 335.065C1284.99 335.125 1285.69 335.156 1286.78 335.156H1307.19C1308.34 335.156 1309.09 335.095 1309.46 334.974C1309.88 334.853 1310.64 334.46 1311.72 333.795C1313.12 332.948 1313.84 332.192 1313.9 331.527V312.567C1313.9 311.66 1313.84 311.085 1313.72 310.843C1313.66 310.541 1313.36 310.178 1312.81 309.754C1312.27 309.331 1311.85 309.089 1311.54 309.029C1311.24 308.908 1310.54 308.847 1309.46 308.847H1286.78C1285.69 308.847 1284.99 308.908 1284.69 309.029C1284.39 309.089 1283.96 309.331 1283.42 309.754C1282.88 310.178 1282.54 310.541 1282.42 310.843C1282.36 311.085 1282.33 311.66 1282.33 312.567Z" fill="white" fill-opacity="0.53"/>
<path d="M380.618 856.207H388.239V857.93C388.239 858.837 388.269 859.442 388.329 859.745C388.45 859.987 388.783 860.319 389.327 860.743C389.872 861.166 390.295 861.438 390.597 861.559C390.9 861.619 391.595 861.65 392.684 861.65H414.456C415.545 861.65 416.24 861.619 416.543 861.559C416.845 861.438 417.269 861.166 417.813 860.743C418.357 860.319 418.66 859.987 418.72 859.745C418.841 859.442 418.902 858.837 418.902 857.93V839.877H418.539L418.085 840.331C415.968 842.448 414.305 843.506 413.096 843.506H388.42C386.969 843.506 385.517 842.901 384.066 841.692L381.888 839.877C380.437 838.668 379.711 837.156 379.711 835.341V812.662C379.711 810.847 380.437 809.335 381.888 808.126L384.066 806.311C385.517 805.102 386.969 804.497 388.42 804.497H417.813C419.264 804.497 420.716 805.102 422.167 806.311L424.345 808.126C425.796 809.335 426.522 810.847 426.522 812.662V859.835C426.522 861.65 425.796 863.162 424.345 864.371L422.167 866.186C420.716 867.395 419.264 868 417.813 868H389.327C387.876 868 386.424 867.395 384.973 866.186L382.796 864.371C381.344 863.162 380.618 861.65 380.618 859.835V856.207ZM387.331 814.567V833.436C387.331 834.343 387.362 834.948 387.422 835.251C387.543 835.492 387.876 835.825 388.42 836.248C388.964 836.672 389.388 836.944 389.69 837.065C389.993 837.125 390.688 837.156 391.777 837.156H412.188C413.337 837.156 414.093 837.095 414.456 836.974C414.88 836.853 415.636 836.46 416.724 835.795C418.115 834.948 418.841 834.192 418.902 833.527V814.567C418.902 813.66 418.841 813.085 418.72 812.843C418.66 812.541 418.357 812.178 417.813 811.754C417.269 811.331 416.845 811.089 416.543 811.029C416.24 810.908 415.545 810.847 414.456 810.847H391.777C390.688 810.847 389.993 810.908 389.69 811.029C389.388 811.089 388.964 811.331 388.42 811.754C387.876 812.178 387.543 812.541 387.422 812.843C387.362 813.085 387.331 813.66 387.331 814.567Z" fill="white" fill-opacity="0.53"/>
<path d="M1454.09 984.935H1478.04V990.352C1478.04 993.203 1478.13 995.104 1478.32 996.054C1478.7 996.815 1479.75 997.86 1481.46 999.191C1483.17 1000.52 1484.5 1001.38 1485.45 1001.76C1486.4 1001.95 1488.59 1002.04 1492.01 1002.04H1560.43C1563.86 1002.04 1566.04 1001.95 1566.99 1001.76C1567.94 1001.38 1569.27 1000.52 1570.98 999.191C1572.69 997.86 1573.64 996.815 1573.83 996.054C1574.21 995.104 1574.4 993.203 1574.4 990.352V933.614H1573.26L1571.84 935.04C1565.19 941.692 1559.96 945.019 1556.16 945.019H1478.61C1474.04 945.019 1469.48 943.118 1464.92 939.316L1458.08 933.614C1453.52 929.813 1451.23 925.061 1451.23 919.358V848.079C1451.23 842.377 1453.52 837.625 1458.08 833.824L1464.92 828.121C1469.48 824.32 1474.04 822.419 1478.61 822.419H1570.98C1575.55 822.419 1580.11 824.32 1584.67 828.121L1591.51 833.824C1596.07 837.625 1598.35 842.377 1598.35 848.079V996.34C1598.35 1002.04 1596.07 1006.79 1591.51 1010.6L1584.67 1016.3C1580.11 1020.1 1575.55 1022 1570.98 1022H1481.46C1476.9 1022 1472.33 1020.1 1467.77 1016.3L1460.93 1010.6C1456.37 1006.79 1454.09 1002.04 1454.09 996.34V984.935ZM1475.18 854.067V913.371C1475.18 916.222 1475.28 918.123 1475.47 919.073C1475.85 919.833 1476.9 920.879 1478.61 922.209C1480.32 923.54 1481.65 924.395 1482.6 924.775C1483.55 924.966 1485.73 925.061 1489.16 925.061H1553.31C1556.92 925.061 1559.29 924.871 1560.43 924.49C1561.76 924.11 1564.14 922.875 1567.56 920.784C1571.93 918.123 1574.21 915.747 1574.4 913.656V854.067C1574.4 851.216 1574.21 849.41 1573.83 848.65C1573.64 847.699 1572.69 846.559 1570.98 845.228C1569.27 843.898 1567.94 843.137 1566.99 842.947C1566.04 842.567 1563.86 842.377 1560.43 842.377H1489.16C1485.73 842.377 1483.55 842.567 1482.6 842.947C1481.65 843.137 1480.32 843.898 1478.61 845.228C1476.9 846.559 1475.85 847.699 1475.47 848.65C1475.28 849.41 1475.18 851.216 1475.18 854.067Z" fill="white" fill-opacity="0.53"/>
<path d="M1111.4 223V218.192C1111.4 217.648 1111.43 217.3 1111.49 217.149C1111.58 216.967 1111.84 216.695 1112.26 216.332L1127.32 202.588C1127.72 202.256 1127.96 201.953 1128.05 201.681C1128.14 201.379 1128.18 200.925 1128.18 200.32V196.283C1128.18 195.83 1128.15 195.542 1128.09 195.422C1128.06 195.27 1127.91 195.089 1127.64 194.877C1127.37 194.666 1127.16 194.545 1127.01 194.514C1126.85 194.454 1126.51 194.424 1125.96 194.424H1117.89C1117.34 194.424 1117 194.454 1116.85 194.514C1116.69 194.545 1116.48 194.666 1116.21 194.877C1115.94 195.089 1115.77 195.27 1115.71 195.422C1115.68 195.542 1115.67 195.83 1115.67 196.283V197.145H1111.86V195.331C1111.86 194.424 1112.22 193.668 1112.94 193.063L1114.03 192.156C1114.76 191.551 1115.48 191.248 1116.21 191.248H1127.64C1128.37 191.248 1129.09 191.551 1129.82 192.156L1130.91 193.063C1131.63 193.668 1132 194.424 1132 195.331V201.726C1132 202.331 1131.95 202.785 1131.86 203.087C1131.77 203.359 1131.53 203.662 1131.13 203.994L1116.12 217.557C1115.7 217.95 1115.44 218.252 1115.35 218.464C1115.26 218.676 1115.21 219.069 1115.21 219.643V219.825H1132V223H1111.4Z" fill="white" fill-opacity="0.53"/>
<path d="M1176.4 520V515.192C1176.4 514.648 1176.43 514.3 1176.49 514.149C1176.58 513.967 1176.84 513.695 1177.26 513.332L1192.32 499.588C1192.72 499.256 1192.96 498.953 1193.05 498.681C1193.14 498.379 1193.18 497.925 1193.18 497.32V493.283C1193.18 492.83 1193.15 492.542 1193.09 492.422C1193.06 492.27 1192.91 492.089 1192.64 491.877C1192.37 491.666 1192.16 491.545 1192.01 491.514C1191.85 491.454 1191.51 491.424 1190.96 491.424H1182.89C1182.34 491.424 1182 491.454 1181.85 491.514C1181.69 491.545 1181.48 491.666 1181.21 491.877C1180.94 492.089 1180.77 492.27 1180.71 492.422C1180.68 492.542 1180.67 492.83 1180.67 493.283V494.145H1176.86V492.331C1176.86 491.424 1177.22 490.668 1177.94 490.063L1179.03 489.156C1179.76 488.551 1180.48 488.248 1181.21 488.248H1192.64C1193.37 488.248 1194.09 488.551 1194.82 489.156L1195.91 490.063C1196.63 490.668 1197 491.424 1197 492.331V498.726C1197 499.331 1196.95 499.785 1196.86 500.087C1196.77 500.359 1196.53 500.662 1196.13 500.994L1181.12 514.557C1180.7 514.95 1180.44 515.252 1180.35 515.464C1180.26 515.676 1180.21 516.069 1180.21 516.643V516.825H1197V520H1176.4Z" fill="white" fill-opacity="0.53"/>
<path d="M1200.55 371.495H1204.36V380.567H1208.72V383.743H1204.36V391H1200.55V383.743H1184.49V380.023L1200.01 359.248H1204.27L1189.17 379.524C1188.86 379.978 1188.61 380.265 1188.4 380.386V380.567H1200.55V371.495Z" fill="white" fill-opacity="0.53"/>
<path d="M1266.55 669.495H1270.36V678.567H1274.72V681.743H1270.36V689H1266.55V681.743H1250.49V678.023L1266.01 657.248H1270.27L1255.17 677.524C1254.86 677.978 1254.61 678.265 1254.4 678.386V678.567H1266.55V669.495Z" fill="white" fill-opacity="0.53"/>
<path d="M595.402 327V322.192C595.402 321.648 595.432 321.3 595.493 321.149C595.583 320.967 595.84 320.695 596.264 320.332L611.323 306.588C611.716 306.256 611.958 305.953 612.049 305.681C612.14 305.379 612.185 304.925 612.185 304.32V300.283C612.185 299.83 612.155 299.542 612.094 299.422C612.064 299.27 611.913 299.089 611.641 298.877C611.368 298.666 611.157 298.545 611.006 298.514C610.854 298.454 610.507 298.424 609.962 298.424H601.888C601.344 298.424 600.996 298.454 600.845 298.514C600.694 298.545 600.482 298.666 600.21 298.877C599.938 299.089 599.772 299.27 599.711 299.422C599.681 299.542 599.666 299.83 599.666 300.283V301.145H595.856V299.331C595.856 298.424 596.218 297.668 596.944 297.063L598.033 296.156C598.759 295.551 599.484 295.248 600.21 295.248H611.641C612.366 295.248 613.092 295.551 613.818 296.156L614.906 297.063C615.632 297.668 615.995 298.424 615.995 299.331V305.726C615.995 306.331 615.95 306.785 615.859 307.087C615.768 307.359 615.526 307.662 615.133 307.994L600.119 321.557C599.696 321.95 599.439 322.252 599.348 322.464C599.257 322.676 599.212 323.069 599.212 323.643V323.825H615.995V327H595.402Z" fill="white" fill-opacity="0.53"/>
<path d="M723.402 600V595.192C723.402 594.648 723.432 594.3 723.493 594.149C723.583 593.967 723.84 593.695 724.264 593.332L739.323 579.588C739.716 579.256 739.958 578.953 740.049 578.681C740.14 578.379 740.185 577.925 740.185 577.32V573.283C740.185 572.83 740.155 572.542 740.094 572.422C740.064 572.27 739.913 572.089 739.641 571.877C739.368 571.666 739.157 571.545 739.006 571.514C738.854 571.454 738.507 571.424 737.962 571.424H729.888C729.344 571.424 728.996 571.454 728.845 571.514C728.694 571.545 728.482 571.666 728.21 571.877C727.938 572.089 727.772 572.27 727.711 572.422C727.681 572.542 727.666 572.83 727.666 573.283V574.145H723.856V572.331C723.856 571.424 724.218 570.668 724.944 570.063L726.033 569.156C726.759 568.551 727.484 568.248 728.21 568.248H739.641C740.366 568.248 741.092 568.551 741.818 569.156L742.906 570.063C743.632 570.668 743.995 571.424 743.995 572.331V578.726C743.995 579.331 743.95 579.785 743.859 580.087C743.768 580.359 743.526 580.662 743.133 580.994L728.119 594.557C727.696 594.95 727.439 595.252 727.348 595.464C727.257 595.676 727.212 596.069 727.212 596.643V596.825H743.995V600H723.402Z" fill="white" fill-opacity="0.53"/>
<path d="M1298.22 878V860.735C1298.22 858.78 1298.32 857.531 1298.54 856.988C1298.87 856.337 1299.79 855.36 1301.31 854.056L1355.39 804.703C1356.8 803.509 1357.67 802.423 1357.99 801.446C1358.32 800.36 1358.48 798.731 1358.48 796.559V782.063C1358.48 780.434 1358.37 779.403 1358.16 778.968C1358.05 778.425 1357.5 777.774 1356.53 777.014C1355.55 776.254 1354.79 775.819 1354.25 775.711C1353.7 775.493 1352.46 775.385 1350.5 775.385H1321.51C1319.55 775.385 1318.3 775.493 1317.76 775.711C1317.22 775.819 1316.46 776.254 1315.48 777.014C1314.5 777.774 1313.91 778.425 1313.69 778.968C1313.58 779.403 1313.53 780.434 1313.53 782.063V785.158H1299.84V778.642C1299.84 775.385 1301.15 772.67 1303.75 770.498L1307.66 767.241C1310.27 765.069 1312.88 763.983 1315.48 763.983H1356.53C1359.13 763.983 1361.74 765.069 1364.35 767.241L1368.26 770.498C1370.86 772.67 1372.16 775.385 1372.16 778.642V801.609C1372.16 803.78 1372 805.409 1371.68 806.495C1371.35 807.472 1370.48 808.558 1369.07 809.753L1315.16 858.454C1313.64 859.866 1312.71 860.952 1312.39 861.712C1312.06 862.472 1311.9 863.884 1311.9 865.947V866.598H1372.16V878H1298.22Z" fill="white" fill-opacity="0.53"/>
<path d="M376.4 184.411L374.268 182.188L380.664 175.248H385.971V207H382.433V178.968C382.433 178.363 382.478 177.97 382.569 177.789L382.433 177.653L376.4 184.411Z" fill="white" fill-opacity="0.53"/>
<path d="M754.772 374.943L756.542 376.394C756.995 376.757 757.252 377.029 757.313 377.211C757.403 377.392 757.449 377.846 757.449 378.572V386.918C757.449 387.522 757.388 387.946 757.267 388.188C757.177 388.43 756.95 388.747 756.587 389.14L755.77 389.957C755.075 390.652 754.364 391 753.639 391H740.756C740.031 391 739.305 390.698 738.579 390.093L737.491 389.186C736.765 388.581 736.402 387.825 736.402 386.918V385.103H740.212V385.965C740.212 386.419 740.227 386.721 740.257 386.872C740.318 386.993 740.484 387.16 740.756 387.371C741.029 387.583 741.24 387.719 741.391 387.779C741.543 387.81 741.89 387.825 742.435 387.825H751.416C751.96 387.825 752.308 387.81 752.459 387.779C752.61 387.719 752.822 387.583 753.094 387.371C753.366 387.16 753.518 386.993 753.548 386.872C753.608 386.721 753.639 386.419 753.639 385.965V379.116C753.639 378.451 753.366 377.876 752.822 377.392L752.142 376.803C751.688 376.409 751.371 376.183 751.189 376.122C751.008 376.062 750.63 376.031 750.055 376.031H742.798V373.128H749.42C749.995 373.128 750.373 373.098 750.554 373.038C750.736 372.977 751.053 372.75 751.507 372.357L752.187 371.813C752.641 371.45 752.898 371.193 752.958 371.042C753.049 370.86 753.094 370.482 753.094 369.908V364.283C753.094 363.83 753.064 363.542 753.003 363.422C752.973 363.27 752.822 363.089 752.55 362.877C752.278 362.666 752.066 362.545 751.915 362.514C751.764 362.454 751.416 362.424 750.872 362.424H743.387C742.813 362.424 742.45 362.454 742.299 362.514C742.147 362.545 741.936 362.666 741.664 362.877C741.391 363.089 741.225 363.27 741.165 363.422C741.134 363.542 741.119 363.83 741.119 364.283V365.145H737.309V363.331C737.309 362.424 737.672 361.668 738.398 361.063L739.486 360.156C740.212 359.551 740.938 359.248 741.664 359.248H752.55C753.276 359.248 754.001 359.551 754.727 360.156L755.816 361.063C756.541 361.668 756.904 362.424 756.904 363.331V370.77C756.904 371.284 756.859 371.616 756.768 371.768C756.708 371.919 756.481 372.146 756.088 372.448L754.772 373.537C754.289 373.93 753.865 374.126 753.502 374.126V374.353C753.865 374.353 754.289 374.55 754.772 374.943Z" fill="white" fill-opacity="0.53"/>
<path d="M820.772 672.943L822.542 674.394C822.995 674.757 823.252 675.029 823.313 675.211C823.403 675.392 823.449 675.846 823.449 676.572V684.918C823.449 685.522 823.388 685.946 823.267 686.188C823.177 686.43 822.95 686.747 822.587 687.14L821.77 687.957C821.075 688.652 820.364 689 819.639 689H806.756C806.031 689 805.305 688.698 804.579 688.093L803.491 687.186C802.765 686.581 802.402 685.825 802.402 684.918V683.103H806.212V683.965C806.212 684.419 806.227 684.721 806.257 684.872C806.318 684.993 806.484 685.16 806.756 685.371C807.029 685.583 807.24 685.719 807.391 685.779C807.543 685.81 807.89 685.825 808.435 685.825H817.416C817.96 685.825 818.308 685.81 818.459 685.779C818.61 685.719 818.822 685.583 819.094 685.371C819.366 685.16 819.518 684.993 819.548 684.872C819.608 684.721 819.639 684.419 819.639 683.965V677.116C819.639 676.451 819.366 675.876 818.822 675.392L818.142 674.803C817.688 674.409 817.371 674.183 817.189 674.122C817.008 674.062 816.63 674.031 816.055 674.031H808.798V671.128H815.42C815.995 671.128 816.373 671.098 816.554 671.038C816.736 670.977 817.053 670.75 817.507 670.357L818.187 669.813C818.641 669.45 818.898 669.193 818.958 669.042C819.049 668.86 819.094 668.482 819.094 667.908V662.283C819.094 661.83 819.064 661.542 819.003 661.422C818.973 661.27 818.822 661.089 818.55 660.877C818.278 660.666 818.066 660.545 817.915 660.514C817.764 660.454 817.416 660.424 816.872 660.424H809.387C808.813 660.424 808.45 660.454 808.299 660.514C808.147 660.545 807.936 660.666 807.664 660.877C807.391 661.089 807.225 661.27 807.165 661.422C807.134 661.542 807.119 661.83 807.119 662.283V663.145H803.309V661.331C803.309 660.424 803.672 659.668 804.398 659.063L805.486 658.156C806.212 657.551 806.938 657.248 807.664 657.248H818.55C819.276 657.248 820.001 657.551 820.727 658.156L821.816 659.063C822.541 659.668 822.904 660.424 822.904 661.331V668.77C822.904 669.284 822.859 669.616 822.768 669.768C822.708 669.919 822.481 670.146 822.088 670.448L820.772 671.537C820.289 671.93 819.865 672.126 819.502 672.126V672.353C819.865 672.353 820.289 672.55 820.772 672.943Z" fill="white" fill-opacity="0.53"/>
<path d="M488.4 715.34L482.392 709.077L500.416 689.518H515.372V779H505.401V700.001C505.401 698.296 505.529 697.188 505.785 696.677L505.401 696.293L488.4 715.34Z" fill="white" fill-opacity="0.53"/>
<path d="M1588.4 615.34L1582.39 609.077L1600.42 589.518H1615.37V679H1605.4V600.001C1605.4 598.296 1605.53 597.188 1605.78 596.677L1605.4 596.293L1588.4 615.34Z" fill="white" fill-opacity="0.53"/>
<path d="M872.4 864.34L866.392 858.077L884.416 838.518H899.372V928H889.401V849.001C889.401 847.296 889.529 846.188 889.785 845.677L889.401 845.293L872.4 864.34Z" fill="white" fill-opacity="0.53"/>
<path d="M1276.32 184.172L1281.62 179.817C1282.99 178.728 1283.76 177.912 1283.94 177.368C1284.21 176.823 1284.35 175.463 1284.35 173.285V148.247C1284.35 146.433 1284.16 145.163 1283.8 144.437C1283.53 143.711 1282.85 142.759 1281.76 141.579L1279.31 139.13C1277.22 137.043 1275.09 136 1272.92 136H1234.27C1232.09 136 1229.91 136.907 1227.74 138.722L1224.47 141.443C1222.29 143.257 1221.21 145.525 1221.21 148.247V153.69H1232.64V151.105C1232.64 149.744 1232.68 148.837 1232.77 148.383C1232.95 148.02 1233.45 147.521 1234.27 146.886C1235.09 146.251 1235.72 145.843 1236.17 145.662C1236.63 145.571 1237.67 145.525 1239.3 145.525H1266.25C1267.88 145.525 1268.92 145.571 1269.38 145.662C1269.83 145.843 1270.47 146.251 1271.28 146.886C1272.1 147.521 1272.55 148.02 1272.64 148.383C1272.82 148.837 1272.92 149.744 1272.92 151.105V171.652C1272.92 173.648 1272.1 175.372 1270.47 176.823L1268.42 178.592C1267.06 179.772 1266.11 180.452 1265.57 180.634C1265.02 180.815 1263.89 180.906 1262.17 180.906H1240.39V189.615H1260.26C1261.98 189.615 1263.12 189.705 1263.66 189.887C1264.21 190.068 1265.16 190.749 1266.52 191.928L1268.56 193.561C1269.92 194.65 1270.69 195.421 1270.87 195.874C1271.15 196.419 1271.28 197.553 1271.28 199.276V216.15C1271.28 217.511 1271.19 218.373 1271.01 218.735C1270.92 219.189 1270.47 219.733 1269.65 220.368C1268.83 221.003 1268.2 221.366 1267.74 221.457C1267.29 221.638 1266.25 221.729 1264.61 221.729H1242.16C1240.44 221.729 1239.35 221.638 1238.9 221.457C1238.44 221.366 1237.81 221.003 1236.99 220.368C1236.17 219.733 1235.68 219.189 1235.49 218.735C1235.4 218.373 1235.36 217.511 1235.36 216.15V213.564H1223.93V219.008C1223.93 221.729 1225.02 223.997 1227.19 225.811L1230.46 228.533C1232.64 230.347 1234.81 231.255 1236.99 231.255H1269.65C1271.83 231.255 1274 230.347 1276.18 228.533L1279.45 225.811C1281.62 223.997 1282.71 221.729 1282.71 219.008V196.691C1282.71 195.149 1282.58 194.151 1282.3 193.697C1282.12 193.243 1281.44 192.563 1280.26 191.656L1276.32 188.39C1274.87 187.211 1273.6 186.621 1272.51 186.621V185.941C1273.6 185.941 1274.87 185.351 1276.32 184.172Z" fill="white" fill-opacity="0.53"/>
<path d="M1481.65 211.09H1426.68C1423.96 211.09 1422.14 210.909 1421.24 210.546C1420.33 210.364 1418.79 209.366 1416.61 207.552L1410.62 202.653C1408.26 200.839 1406.9 199.478 1406.54 198.571C1406.18 197.664 1405.99 195.758 1405.99 192.855V154.209C1405.99 151.488 1406.09 149.673 1406.27 148.766C1406.63 148.04 1407.63 147.043 1409.26 145.772C1410.89 144.502 1412.16 143.686 1413.07 143.323C1413.98 143.142 1416.06 143.051 1419.33 143.051H1489C1492.27 143.051 1494.35 143.142 1495.26 143.323C1496.17 143.686 1497.44 144.502 1499.07 145.772C1500.7 147.043 1501.61 148.04 1501.79 148.766C1502.16 149.673 1502.34 151.488 1502.34 154.209V192.855C1502.34 195.758 1502.16 197.664 1501.79 198.571C1501.43 199.478 1500.07 200.839 1497.71 202.653L1491.72 207.552C1489.55 209.366 1488 210.364 1487.1 210.546C1486.19 210.909 1484.38 211.09 1481.65 211.09ZM1485.74 295.458H1422.6C1419.33 295.458 1417.24 295.277 1416.34 294.914C1415.43 294.733 1414.16 294.007 1412.53 292.737C1410.89 291.467 1409.9 290.378 1409.53 289.471C1409.35 288.745 1409.26 287.021 1409.26 284.3V248.92C1409.26 245.835 1409.44 243.839 1409.8 242.932C1410.17 242.025 1411.44 240.664 1413.61 238.85L1420.69 233.135C1422.51 231.683 1423.87 230.776 1424.77 230.413C1425.86 230.232 1428.04 230.141 1431.3 230.141H1477.03C1480.29 230.141 1482.38 230.232 1483.29 230.413C1484.38 230.776 1485.83 231.683 1487.64 233.135L1494.72 238.85C1496.89 240.664 1498.16 242.025 1498.53 242.932C1498.89 243.839 1499.07 245.835 1499.07 248.92V284.3C1499.07 287.021 1498.89 288.745 1498.53 289.471C1498.35 290.378 1497.44 291.467 1495.81 292.737C1494.17 294.007 1492.9 294.733 1492 294.914C1491.09 295.277 1489 295.458 1485.74 295.458ZM1386.94 208.096L1399.73 218.71C1402.64 221.069 1405.18 222.248 1407.36 222.248V223.609C1405.18 223.609 1402.64 224.788 1399.73 227.147L1390.75 234.223C1387.85 236.582 1386.4 239.666 1386.4 243.477V290.015C1386.4 295.458 1388.58 299.994 1392.93 303.623L1399.46 309.066C1403.82 312.695 1408.17 314.509 1412.53 314.509H1495.81C1500.16 314.509 1504.51 312.695 1508.87 309.066L1515.4 303.623C1519.76 299.994 1521.93 295.458 1521.93 290.015V243.477C1521.93 239.666 1520.48 236.582 1517.58 234.223L1508.6 227.147C1505.69 224.788 1503.15 223.609 1500.98 223.609V222.248C1503.15 222.248 1505.69 221.069 1508.6 218.71L1521.39 208.096C1523.93 206.1 1525.2 202.562 1525.2 197.482V148.494C1525.2 143.051 1523.02 138.515 1518.67 134.886C1517.22 133.798 1515.04 131.983 1512.14 129.443C1507.78 125.814 1503.43 124 1499.07 124H1409.26C1404.91 124 1400.55 125.814 1396.2 129.443C1393.29 131.983 1391.12 133.798 1389.67 134.886C1385.31 138.515 1383.13 143.051 1383.13 148.494V197.482C1383.13 202.562 1384.4 206.1 1386.94 208.096Z" fill="white" fill-opacity="0.53"/>
<path d="M329.654 656.09H274.678C271.957 656.09 270.142 655.909 269.235 655.546C268.328 655.364 266.786 654.366 264.608 652.552L258.621 647.653C256.262 645.839 254.902 644.478 254.539 643.571C254.176 642.664 253.994 640.758 253.994 637.855V599.209C253.994 596.488 254.085 594.673 254.267 593.766C254.629 593.04 255.627 592.043 257.26 590.772C258.893 589.502 260.163 588.686 261.07 588.323C261.978 588.142 264.064 588.051 267.33 588.051H337.002C340.268 588.051 342.354 588.142 343.262 588.323C344.169 588.686 345.439 589.502 347.072 590.772C348.705 592.043 349.612 593.04 349.793 593.766C350.156 594.673 350.338 596.488 350.338 599.209V637.855C350.338 640.758 350.156 642.664 349.793 643.571C349.43 644.478 348.07 645.839 345.711 647.653L339.724 652.552C337.546 654.366 336.004 655.364 335.097 655.546C334.19 655.909 332.375 656.09 329.654 656.09ZM333.736 740.458H270.596C267.33 740.458 265.243 740.277 264.336 739.914C263.429 739.733 262.159 739.007 260.526 737.737C258.893 736.467 257.895 735.378 257.532 734.471C257.351 733.745 257.26 732.021 257.26 729.3V693.92C257.26 690.835 257.442 688.839 257.805 687.932C258.167 687.025 259.437 685.664 261.615 683.85L268.691 678.135C270.505 676.683 271.866 675.776 272.773 675.413C273.862 675.232 276.039 675.141 279.305 675.141H325.027C328.293 675.141 330.38 675.232 331.287 675.413C332.375 675.776 333.827 676.683 335.641 678.135L342.717 683.85C344.894 685.664 346.165 687.025 346.527 687.932C346.89 688.839 347.072 690.835 347.072 693.92V729.3C347.072 732.021 346.89 733.745 346.527 734.471C346.346 735.378 345.439 736.467 343.806 737.737C342.173 739.007 340.903 739.733 339.996 739.914C339.088 740.277 337.002 740.458 333.736 740.458ZM234.943 653.096L247.735 663.71C250.638 666.069 253.178 667.248 255.355 667.248V668.609C253.178 668.609 250.638 669.788 247.735 672.147L238.754 679.223C235.851 681.582 234.399 684.666 234.399 688.477V735.015C234.399 740.458 236.576 744.994 240.931 748.623L247.463 754.066C251.817 757.695 256.172 759.509 260.526 759.509H343.806C348.16 759.509 352.515 757.695 356.869 754.066L363.401 748.623C367.756 744.994 369.933 740.458 369.933 735.015V688.477C369.933 684.666 368.481 681.582 365.578 679.223L356.597 672.147C353.694 669.788 351.154 668.609 348.977 668.609V667.248C351.154 667.248 353.694 666.069 356.597 663.71L369.389 653.096C371.929 651.1 373.199 647.562 373.199 642.482V593.494C373.199 588.051 371.021 583.515 366.667 579.886C365.215 578.798 363.038 576.983 360.135 574.443C355.781 570.814 351.426 569 347.072 569H257.26C252.906 569 248.551 570.814 244.197 574.443C241.294 576.983 239.117 578.798 237.665 579.886C233.311 583.515 231.133 588.051 231.133 593.494L231.133 642.482C231.133 647.562 232.403 651.1 234.943 653.096Z" fill="white" fill-opacity="0.53"/>
<path d="M1623.34 115.404H1654.09C1656.27 115.404 1658.45 116.311 1660.62 118.126L1663.89 120.847C1666.07 122.662 1667.16 124.93 1667.16 127.651V165.753C1667.16 168.475 1666.07 170.743 1663.89 172.557L1660.62 175.278C1658.45 177.093 1656.27 178 1654.09 178H1613.27C1611.09 178 1608.91 177.093 1606.74 175.278L1603.47 172.557C1601.29 170.743 1600.21 168.475 1600.21 165.753V160.31H1611.64V162.895C1611.64 164.256 1611.68 165.163 1611.77 165.617C1611.95 165.98 1612.45 166.479 1613.27 167.114C1614.09 167.749 1614.72 168.157 1615.17 168.338C1615.63 168.429 1616.67 168.475 1618.3 168.475H1649.06C1650.69 168.475 1651.73 168.429 1652.19 168.338C1652.64 168.157 1653.28 167.749 1654.09 167.114C1654.91 166.479 1655.36 165.98 1655.45 165.617C1655.63 165.163 1655.73 164.256 1655.73 162.895V130.509C1655.73 129.148 1655.63 128.286 1655.45 127.923C1655.36 127.47 1654.91 126.925 1654.09 126.29C1653.28 125.655 1652.64 125.292 1652.19 125.202C1651.73 125.02 1650.69 124.93 1649.06 124.93H1622.79C1620.62 124.93 1618.44 125.837 1616.26 127.651C1614.09 129.466 1613 131.28 1613 133.094H1601.57V82.7454H1665.52V92.2708H1613V122.072H1613.54C1613.63 121.074 1614.63 119.849 1616.54 118.398C1619.26 116.402 1621.52 115.404 1623.34 115.404Z" fill="white" fill-opacity="0.46"/>
<path d="M1441.34 709.404H1472.09C1474.27 709.404 1476.45 710.311 1478.62 712.126L1481.89 714.847C1484.07 716.662 1485.16 718.93 1485.16 721.651V759.753C1485.16 762.475 1484.07 764.743 1481.89 766.557L1478.62 769.278C1476.45 771.093 1474.27 772 1472.09 772H1431.27C1429.09 772 1426.91 771.093 1424.74 769.278L1421.47 766.557C1419.29 764.743 1418.21 762.475 1418.21 759.753V754.31H1429.64V756.895C1429.64 758.256 1429.68 759.163 1429.77 759.617C1429.95 759.98 1430.45 760.479 1431.27 761.114C1432.09 761.749 1432.72 762.157 1433.17 762.338C1433.63 762.429 1434.67 762.475 1436.3 762.475H1467.06C1468.69 762.475 1469.73 762.429 1470.19 762.338C1470.64 762.157 1471.28 761.749 1472.09 761.114C1472.91 760.479 1473.36 759.98 1473.45 759.617C1473.63 759.163 1473.73 758.256 1473.73 756.895V724.509C1473.73 723.148 1473.63 722.286 1473.45 721.923C1473.36 721.47 1472.91 720.925 1472.09 720.29C1471.28 719.655 1470.64 719.292 1470.19 719.202C1469.73 719.02 1468.69 718.93 1467.06 718.93H1440.79C1438.62 718.93 1436.44 719.837 1434.26 721.651C1432.09 723.466 1431 725.28 1431 727.094H1419.57V676.745H1483.52V686.271H1431V716.072H1431.54C1431.63 715.074 1432.63 713.849 1434.54 712.398C1437.26 710.402 1439.52 709.404 1441.34 709.404Z" fill="white" fill-opacity="0.46"/>
<path d="M430.321 148L490.014 37.3232C491.103 35.3879 492.131 34.1783 493.098 33.6945H414.536V20.9938H507.613V34.7831L447.013 148H430.321Z" fill="white" fill-opacity="0.53"/>
<path d="M593.321 874L653.014 763.323C654.103 761.388 655.131 760.178 656.098 759.694H577.536V746.994H670.613V760.783L610.013 874H593.321Z" fill="white" fill-opacity="0.53"/>
<defs>
<radialGradient id="paint0_diamond_1_99" cx="0" cy="0" r="1" gradientUnits="userSpaceOnUse" gradientTransform="translate(958 443.09) rotate(90) scale(339.09 960)">
<stop stop-color="#E5E5E5" stop-opacity="0.24"/>
<stop offset="1" stop-color="white" stop-opacity="0"/>
</radialGradient>
</defs>
</svg>
